<?xml version="1.0" standalone="no"?>
<!DOCTYPE svg PUBLIC "-//W3C//DTD SVG 20010904//EN"
 "http://www.w3.org/TR/2001/REC-SVG-20010904/DTD/svg10.dtd">
<svg version="1.0" xmlns="http://www.w3.org/2000/svg"
 width="1200.000000pt" height="1200.000000pt" viewBox="0 0 1200.000000 1200.000000"
 preserveAspectRatio="xMidYMid meet">

<g transform="translate(0.000000,1200.000000) scale(0.100000,-0.100000)"
fill="#000000" stroke="none">
<path d="M5035 11604 c-22 -2 -96 -9 -165 -15 -492 -43 -1056 -206 -1520 -438
-294 -147 -472 -263 -710 -461 -167 -140 -246 -222 -305 -322 -54 -91 -119
-241 -130 -300 -4 -21 -11 -38 -15 -38 -16 0 -59 61 -70 98 -17 63 -12 134 14
185 12 26 21 49 18 51 -2 3 -23 -4 -46 -16 -127 -64 -184 -138 -240 -310 -46
-138 -56 -230 -32 -277 10 -18 16 -34 14 -35 -2 -1 -32 -13 -68 -26 -92 -32
-140 -62 -199 -125 -61 -64 -85 -115 -106 -226 -25 -136 -15 -397 16 -387 6 2
24 40 42 84 61 151 147 242 308 324 55 28 104 50 108 48 5 -2 -22 -46 -60 -98
-124 -173 -218 -381 -263 -584 -54 -243 -60 -287 -60 -456 0 -179 8 -222 85
-421 59 -154 303 -454 487 -601 41 -32 115 -83 166 -113 102 -59 344 -168 362
-161 6 2 42 -21 80 -51 178 -142 584 -359 869 -465 102 -37 455 -138 605 -172
105 -24 307 -55 453 -71 l57 -6 0 -94 c0 -123 -20 -224 -67 -330 -44 -102 -83
-150 -115 -142 -24 7 -88 -23 -118 -55 -25 -27 -18 -37 9 -12 11 11 36 28 55
38 l36 19 53 -35 c80 -54 308 -165 419 -203 187 -65 446 -69 625 -10 65 22 99
41 165 94 72 57 84 72 92 108 l9 41 44 -31 c272 -197 694 -600 906 -865 67
-85 152 -189 189 -232 36 -43 98 -120 136 -172 39 -51 101 -127 138 -168 109
-122 239 -285 316 -393 39 -56 97 -133 128 -172 96 -119 307 -413 354 -492 9
-16 -239 -141 -383 -193 -58 -21 -164 -62 -236 -93 -71 -30 -186 -75 -255
-100 -131 -48 -247 -100 -315 -142 -56 -34 -307 -139 -380 -158 -201 -53 -593
-108 -646 -92 -10 4 -19 2 -19 -3 0 -9 -534 255 -579 287 -62 43 -454 233
-543 262 -93 30 -98 34 -98 60 0 15 4 39 10 53 5 14 14 88 20 163 6 76 13 152
16 169 l4 31 131 17 c155 21 225 40 239 65 16 31 23 314 12 471 -6 80 -22 199
-36 265 -14 66 -37 190 -51 275 -28 160 -123 480 -153 510 -12 13 -12 11 1
-15 34 -68 108 -349 132 -500 14 -88 34 -205 45 -261 10 -55 24 -172 31 -260
12 -171 7 -470 -9 -486 -5 -5 -65 -18 -133 -29 -250 -38 -398 -49 -637 -49
-205 1 -288 5 -472 24 -129 13 -391 74 -510 119 -58 21 -65 27 -62 48 17 113
277 778 386 984 141 267 160 302 192 350 18 28 70 93 115 145 45 52 139 165
209 250 70 85 157 183 194 218 71 68 83 86 37 53 -45 -32 -150 -141 -216 -222
-33 -41 -112 -135 -175 -209 -171 -199 -192 -228 -266 -367 -37 -70 -94 -164
-127 -207 -32 -44 -68 -98 -79 -120 -11 -23 -66 -117 -121 -211 -238 -402
-385 -779 -536 -1380 l-66 -260 -46 -6 c-111 -16 -316 -162 -442 -317 -128
-155 -155 -281 -116 -527 32 -200 76 -318 169 -455 90 -133 254 -272 428 -363
288 -150 706 -261 1107 -292 201 -16 863 -33 1374 -35 l275 -1 61 -62 c53 -56
74 -69 183 -115 149 -64 345 -110 507 -119 88 -5 113 -3 121 8 20 25 212 482
234 559 18 59 69 312 70 341 0 15 -131 91 -181 104 -317 88 -373 96 -521 73
-63 -9 -83 -9 -105 2 -27 13 -24 14 57 21 120 10 199 31 400 109 258 100 274
104 723 196 93 19 173 36 178 40 15 9 11 -3 -41 -99 -27 -52 -50 -101 -50
-110 0 -9 -25 -29 -61 -48 -73 -39 -191 -152 -245 -234 -21 -33 -43 -63 -49
-67 -13 -10 -11 -11 150 -100 131 -72 344 -202 400 -244 30 -22 213 -133 355
-214 41 -24 122 -76 179 -117 58 -40 114 -73 125 -73 42 1 227 238 277 354 15
35 41 68 83 105 34 30 158 154 276 275 472 485 553 584 665 819 153 320 184
565 97 768 -37 87 -199 237 -320 298 -71 36 -322 90 -476 102 -176 14 -373 -1
-458 -36 -12 -5 -32 16 -84 92 -96 140 -214 300 -316 432 -49 62 -107 141
-130 175 -23 33 -61 85 -85 114 -24 30 -43 57 -43 62 0 4 16 28 37 52 20 23
47 67 60 96 l23 53 38 -30 c21 -16 96 -91 165 -165 70 -74 209 -210 309 -303
101 -92 216 -200 258 -238 41 -39 95 -87 119 -107 l44 -37 -36 -40 c-20 -22
-43 -55 -52 -73 l-16 -33 23 30 c13 17 38 47 57 68 41 45 34 45 422 17 242
-17 763 -49 1084 -65 61 -3 187 -13 281 -21 249 -22 459 -9 639 42 131 36 275
55 275 36 0 -11 -89 -47 -204 -82 -43 -13 -73 -26 -67 -28 15 -5 240 66 269
84 18 12 26 13 38 3 8 -6 14 -17 14 -24 0 -24 -114 -89 -250 -141 -106 -41
-80 -45 31 -4 87 31 160 70 196 103 34 30 39 13 10 -35 -72 -123 -336 -234
-539 -226 -88 3 -113 -7 -41 -17 165 -22 155 -65 -16 -65 -66 0 -96 5 -125 19
-40 21 -49 21 -211 2 -49 -6 -173 -11 -275 -11 -263 0 -684 -12 -668 -19 25
-11 940 5 1019 18 71 12 80 12 137 -9 78 -28 221 -26 267 4 l29 19 -22 18
c-29 23 -28 29 6 29 52 0 186 41 271 82 56 28 104 61 143 99 53 52 58 60 58
101 0 33 -6 50 -22 65 -58 53 -105 55 -250 13 -243 -70 -438 -89 -658 -65 -74
9 -254 22 -400 30 -445 25 -755 44 -975 60 -115 8 -259 18 -318 22 -127 7 -99
-10 -337 208 -278 255 -391 364 -500 481 -58 63 -130 132 -160 155 -30 22 -56
42 -57 43 -1 1 4 24 12 51 19 61 19 98 0 135 -29 55 -750 676 -935 804 -340
236 -566 370 -714 422 -109 38 -181 105 -238 221 -37 74 -42 94 -46 170 -4 74
9 219 24 275 3 11 23 20 62 28 118 23 212 53 372 117 288 114 376 166 577 339
318 274 464 459 646 815 146 287 210 463 248 683 18 107 20 149 16 361 -5 260
-13 318 -72 530 -70 248 -156 433 -322 694 -30 46 -52 85 -50 88 3 2 28 -6 58
-17 81 -32 323 -89 409 -96 73 -6 78 -5 94 17 54 78 -40 397 -157 526 l-20 23
65 -7 c40 -3 68 -2 71 4 8 12 -46 117 -115 225 -97 152 -303 315 -553 438
-120 60 -351 142 -435 155 -77 12 -79 22 -4 30 81 9 118 21 109 35 -11 17
-179 98 -314 151 -203 80 -384 128 -626 165 -95 15 -642 28 -750 18z m685 -34
c36 -5 103 -16 150 -23 l85 -14 -155 -7 c-487 -23 -895 -81 -1315 -187 -88
-23 -349 -103 -579 -180 -231 -77 -421 -137 -423 -135 -6 5 204 116 295 156
223 96 531 198 802 263 255 62 422 92 755 137 76 10 281 4 385 -10z m15 -380
c402 -22 710 -54 1033 -111 284 -49 295 -52 440 -141 72 -44 193 -130 189
-134 -1 -2 -65 14 -142 35 -609 167 -1279 267 -2060 306 -239 12 -617 -18
-884 -70 -69 -14 -126 -23 -128 -21 -12 11 362 83 581 112 248 32 631 42 971
24z m-1568 -146 c-3 -3 -12 -4 -19 -1 -8 3 -5 6 6 6 11 1 17 -2 13 -5z m1168
-204 c627 -41 1497 -206 2065 -392 143 -46 170 -66 231 -169 21 -36 39 -68 39
-71 0 -4 -44 11 -97 31 -299 116 -670 221 -1203 340 -807 180 -1191 231 -1745
231 -222 0 -371 -7 -535 -26 -36 -3 -63 -4 -60 -1 8 8 326 47 459 56 175 12
665 12 846 1z m-1322 -67 c-7 -2 -19 -2 -25 0 -7 3 -2 5 12 5 14 0 19 -2 13
-5z m-56 -9 c-3 -3 -12 -4 -19 -1 -8 3 -5 6 6 6 11 1 17 -2 13 -5z m688 -344
c261 -25 557 -66 945 -131 593 -99 792 -142 925 -199 l50 -21 -180 6 c-252 7
-615 40 -778 70 -129 24 -423 100 -564 146 -59 19 -83 19 -83 -1 0 -5 9 -12
20 -15 11 -3 20 -10 20 -14 0 -4 -62 3 -137 15 -428 70 -758 97 -1175 98 -179
1 -326 2 -325 2 6 5 417 47 532 54 167 10 596 5 750 -10z m-1302 -57 c-7 -2
-19 -2 -25 0 -7 3 -2 5 12 5 14 0 19 -2 13 -5z m1889 -157 c90 -25 215 -57
278 -70 221 -47 616 -83 1016 -91 142 -3 285 -8 317 -10 l59 -5 -4 50 c-1 28
-2 50 0 50 2 0 33 -24 70 -54 37 -30 96 -69 131 -88 60 -31 68 -40 131 -139
96 -151 202 -349 243 -454 44 -109 107 -326 107 -364 l0 -28 -92 -5 c-146 -8
-275 -71 -340 -166 -41 -59 -50 -151 -19 -199 28 -44 94 -90 154 -108 58 -17
220 -20 286 -4 24 5 46 7 49 4 14 -14 13 -132 -2 -226 -38 -233 -107 -426
-262 -729 -149 -292 -308 -503 -519 -693 -258 -232 -360 -300 -593 -399 -276
-117 -478 -168 -872 -220 -141 -18 -221 -23 -415 -23 -369 0 -606 36 -1022
154 -343 98 -489 156 -764 305 -291 157 -400 231 -556 378 l-72 68 52 0 c40 0
62 6 90 25 20 14 37 32 37 40 0 21 -3 19 -40 -15 -28 -26 -39 -30 -90 -30
-174 0 -351 131 -460 340 -69 134 -88 265 -54 380 22 76 125 179 209 210 106
39 177 47 253 27 107 -28 137 -67 183 -243 26 -102 30 -130 25 -195 -7 -87 0
-97 53 -72 44 22 85 85 117 179 24 73 26 89 22 204 -4 111 -8 136 -40 225 -19
55 -49 132 -66 171 -65 153 -103 383 -82 501 24 141 92 261 230 408 150 159
170 183 170 209 0 37 48 86 189 194 139 106 265 222 287 264 17 33 18 70 2 86
-6 6 -10 13 -7 15 2 2 157 9 344 15 326 11 634 36 815 67 122 20 242 64 255
93 5 12 15 20 22 18 6 -3 85 -25 175 -50z m-2577 -3196 c3 -5 1 -10 -4 -10 -6
0 -11 5 -11 10 0 6 2 10 4 10 3 0 8 -4 11 -10z m3057 -737 c-24 -45 -42 -230
-32 -307 12 -82 69 -193 136 -265 55 -60 55 -60 44 -100 -8 -31 -24 -50 -73
-89 -34 -27 -75 -56 -92 -64 -164 -82 -458 -94 -665 -27 -98 32 -382 163 -425
197 l-24 19 26 24 c38 35 109 192 127 281 9 42 16 121 16 175 l0 98 223 1
c219 1 441 21 627 59 36 7 78 13 93 14 23 1 26 -2 19 -16z m371 -714 c104 -52
169 -93 494 -307 172 -114 304 -216 493 -382 41 -36 165 -145 275 -241 269
-235 275 -241 275 -293 0 -52 -24 -134 -58 -201 -27 -53 -70 -115 -81 -115
-10 0 -221 246 -297 346 -37 49 -90 116 -118 149 -29 33 -76 92 -106 130 -136
176 -264 316 -476 520 -249 239 -366 342 -465 404 -88 56 -59 51 64 -10z
m-2542 -1116 c-63 -126 -250 -587 -296 -730 -60 -185 -61 -189 -33 -207 60
-39 241 -90 468 -130 81 -15 124 -27 122 -35 -1 -6 -7 -93 -12 -194 -6 -100
-15 -213 -21 -252 -5 -38 -13 -114 -16 -168 l-6 -98 40 -37 c31 -29 76 -52
213 -105 96 -37 238 -85 315 -108 77 -22 226 -69 330 -104 185 -61 188 -63
125 -59 -36 2 -153 6 -260 8 -285 7 -547 35 -640 68 -30 11 -90 35 -133 54
-92 40 -342 125 -453 153 -154 39 -377 81 -431 81 -49 0 -54 2 -48 18 4 9 36
130 71 267 69 272 161 571 223 724 69 170 182 412 239 510 31 53 84 148 118
211 34 63 74 136 88 163 42 76 39 54 -3 -30z m544 -1103 c207 -7 554 2 575 15
12 7 12 17 0 -130 -6 -66 -18 -163 -27 -215 l-16 -96 -68 -27 c-73 -30 -195
-105 -186 -114 3 -3 20 5 37 17 45 32 201 100 230 100 38 0 197 -56 281 -99
178 -92 332 -173 444 -233 66 -35 167 -87 225 -115 58 -27 177 -89 264 -137
88 -47 179 -93 202 -101 29 -10 123 -18 282 -24 274 -11 304 -18 352 -84 22
-30 30 -52 30 -83 0 -72 -68 -259 -101 -280 -16 -10 -91 -6 -102 5 -5 5 1 23
12 42 16 25 21 51 21 101 0 37 -4 70 -10 73 -6 4 -10 -16 -10 -53 0 -61 -15
-122 -31 -122 -5 0 -9 -6 -9 -14 0 -18 -45 -54 -75 -62 -12 -3 -38 1 -58 10
l-36 15 26 46 c27 50 38 154 18 174 -7 7 -10 -11 -11 -54 -2 -72 -30 -134 -76
-168 -27 -20 -28 -20 -47 -3 -11 10 -27 16 -36 13 -20 -8 -20 -8 15 58 33 63
41 143 16 164 -12 10 -13 6 -9 -28 8 -61 -15 -129 -59 -173 -46 -46 -63 -47
-83 -8 -20 39 -20 44 15 78 26 26 30 38 30 84 0 38 -3 49 -10 38 -5 -8 -10
-32 -10 -52 0 -25 -7 -45 -20 -58 -20 -20 -20 -20 -58 -1 -21 11 -58 36 -82
56 -53 44 -65 51 -114 59 -51 10 -377 104 -591 171 -93 29 -216 65 -272 79
-56 14 -186 55 -290 91 -103 35 -267 87 -363 116 -167 49 -365 121 -440 159
-19 10 -46 30 -59 44 -23 24 -23 30 -18 123 3 54 13 150 21 213 9 63 16 158
16 210 0 143 9 202 29 195 9 -4 115 -10 236 -15z m4802 -369 c148 -52 258
-109 304 -155 66 -65 83 -162 54 -301 -27 -128 -175 -397 -310 -566 -51 -63
-56 -66 -162 -107 -265 -102 -887 -302 -938 -302 -12 0 -34 13 -49 29 l-28 29
13 77 13 76 61 44 c79 56 263 158 338 186 156 60 -58 7 -273 -66 -164 -57
-275 -105 -385 -168 -102 -57 -288 -179 -324 -211 -49 -44 50 127 227 393
l176 263 130 116 c168 148 325 251 553 363 100 49 185 94 188 98 5 9 -192 -77
-282 -122 -79 -41 -280 -164 -333 -205 -27 -20 -90 -73 -141 -117 l-93 -80 70
133 69 134 125 91 c274 200 426 275 735 367 72 21 135 39 142 39 7 1 61 -16
120 -38z m-5777 -455 c266 -58 445 -117 710 -236 63 -29 185 -82 270 -120 324
-142 528 -238 625 -292 55 -31 168 -85 250 -121 83 -36 209 -94 280 -130 72
-35 174 -82 227 -103 54 -21 98 -42 98 -47 0 -21 -72 -30 -265 -34 -173 -4
-245 -1 -410 17 -110 12 -220 25 -245 30 -25 4 -80 11 -123 15 -76 7 -81 9
-230 102 -167 104 -186 115 -143 81 16 -13 83 -68 149 -123 279 -235 356 -291
542 -393 99 -55 109 -64 150 -125 52 -79 59 -77 -120 -47 -807 135 -1630 405
-2010 659 -181 121 -325 271 -366 380 -34 93 -45 258 -24 366 7 36 162 135
242 155 68 17 219 4 393 -34z m3215 -166 c-3 -5 -12 -10 -18 -10 -7 0 -6 4 3
10 19 12 23 12 15 0z m-991 -740 c93 -44 120 -65 34 -26 -64 28 -135 65 -127
66 3 0 45 -18 93 -40z"/>
<path d="M6733 9925 c-10 -26 25 -52 95 -70 80 -21 220 -89 301 -146 63 -45
89 -47 108 -9 14 29 -5 70 -52 105 -37 28 -219 103 -295 121 -77 19 -149 18
-157 -1z"/>
<path d="M4352 9839 c-81 -40 -185 -152 -237 -255 -42 -83 -41 -106 7 -112 21
-3 40 14 116 100 107 123 135 150 204 198 62 43 74 75 33 90 -40 15 -57 13
-123 -21z"/>
<path d="M6760 9414 c-66 -41 -99 -156 -63 -224 38 -73 123 -100 188 -60 83
51 97 213 23 275 -35 30 -108 34 -148 9z"/>
<path d="M4503 9348 c-80 -17 -134 -120 -118 -224 9 -62 39 -94 100 -105 109
-20 185 50 185 170 0 83 -61 175 -113 170 -7 -1 -31 -5 -54 -11z"/>
<path d="M6034 9212 c-90 -31 -214 -114 -214 -144 0 -9 3 -9 12 0 17 17 43 15
87 -7 38 -20 67 -68 73 -121 2 -19 13 -28 53 -43 68 -25 73 -32 36 -55 -38
-23 -25 -32 34 -21 46 8 95 58 141 143 54 99 24 204 -69 247 -52 23 -87 23
-153 1z m141 -57 c32 -31 31 -50 0 -71 -31 -20 -65 -9 -91 31 -16 24 -16 27 1
45 24 27 61 25 90 -5z m23 -117 c19 -19 14 -39 -15 -70 -36 -38 -48 -35 -47
11 1 59 32 89 62 59z"/>
<path d="M3613 8986 c-180 -59 -258 -187 -194 -319 45 -92 194 -193 322 -217
263 -50 559 83 559 250 0 122 -96 221 -268 278 -64 21 -100 26 -212 28 -119 3
-143 0 -207 -20z"/>
<path d="M4490 8411 c0 -16 5 -42 10 -56 6 -15 35 -131 65 -258 98 -408 138
-495 314 -679 207 -217 336 -292 548 -318 166 -21 421 22 633 105 276 109 616
316 869 529 129 108 317 336 410 495 60 103 60 127 0 29 -71 -115 -116 -178
-132 -182 -221 -64 -530 -110 -913 -137 -265 -18 -742 -7 -1044 25 -280 29
-495 59 -592 83 l-67 17 -26 115 c-15 64 -33 136 -41 160 -8 25 -14 57 -14 73
0 15 -4 28 -10 28 -5 0 -10 -13 -10 -29z m1252 -821 c84 -6 196 -18 248 -26
99 -16 331 -89 409 -128 l44 -23 -86 -47 c-205 -112 -433 -199 -602 -232 -111
-20 -327 -24 -410 -5 -77 17 -184 68 -260 126 -94 71 -314 295 -290 295 4 0
84 9 178 20 95 11 197 21 227 23 132 8 400 6 542 -3z"/>
<path d="M4545 8415 c95 -81 451 -180 785 -220 540 -63 1520 3 1949 131 92 28
107 40 21 18 -195 -51 -704 -104 -1190 -125 -601 -25 -1077 29 -1450 164 -52
19 -104 38 -115 42 l-20 7 20 -17z"/>
<path d="M7395 8370 c-3 -5 -1 -10 4 -10 6 0 11 5 11 10 0 6 -2 10 -4 10 -3 0
-8 -4 -11 -10z"/>
<path d="M2280 7918 c-19 -5 -42 -16 -50 -24 -13 -13 -9 -13 22 1 81 33 148
10 209 -71 l40 -52 -44 -44 c-27 -27 -51 -64 -61 -94 -29 -82 -34 -234 -8
-234 4 0 8 39 8 88 2 62 8 103 23 142 25 63 76 129 90 115 17 -19 51 -126 57
-180 8 -63 24 -74 24 -17 0 135 -125 346 -220 372 -41 11 -44 11 -90 -2z"/>
<path d="M6130 4655 c-107 -35 -193 -101 -239 -183 -9 -15 -14 -13 -48 19 -66
63 -93 72 -237 77 -157 5 -214 -6 -295 -58 -143 -93 -158 -219 -42 -372 66
-86 154 -154 421 -322 156 -98 195 -117 304 -145 131 -34 230 -24 316 33 69
46 151 213 247 506 56 173 39 272 -64 372 -59 57 -122 80 -228 84 -61 3 -104
-1 -135 -11z"/>
</g>
</svg>
